<svg xmlns="http://www.w3.org/2000/svg" viewBox="0 0 24 24" width="24" height="24">
  <path d="M20 4H4C2.9 4 2 4.9 2 6V18C2 19.1 2.9 20 4 20H20C21.1 20 22 19.1 22 18V6C22 4.9 21.1 4 20 4ZM20 18H4V8H20V18ZM15 7C15 6.45 15.45 6 16 6C16.55 6 17 6.45 17 7C17 7.55 16.55 8 16 8C15.45 8 15 7.55 15 7ZM9 6C9 5.45 9.45 5 10 5C10.55 5 11 5.45 11 6C11 6.55 10.55 7 10 7C9.45 7 9 6.55 9 6ZM12 10C12 10.55 12.45 11 13 11C13.55 11 14 10.55 14 10C14 9.45 13.55 9 13 9C12.45 9 12 9.45 12 10ZM10 13C10 13.55 10.45 14 11 14C11.55 14 12 13.55 12 13C12 12.45 11.55 12 11 12C10.45 12 10 12.45 10 13ZM6 17H7.5C7.78 17 8.05 16.89 8.25 16.67L10.5 14.42L12.75 16.67C12.95 16.89 13.22 17 13.5 17H15C15.55 17 16 16.55 16 16C16 15.45 15.55 15 15 15H12C11.45 15 11 15.45 11 16C11 16.55 11.45 17 12 17H15V17H6Z" fill="currentColor"/>
</svg>
