<svg xmlns="http://www.w3.org/2000/svg" viewBox="0 0 48 48" width="28px" height="28px">
  <path fill="#4285F4" d="M44.5 20H24v8.5h11.7C34.5 32.9 29.8 37 24 37c-7.2 0-13-5.8-13-13s5.8-13 13-13c3.2 0 6.2 1.2 8.4 3.3l6.2-6.2C34.5 4.5 29.5 2 24 2 11.8 2 2 11.8 2 24s9.8 22 22 22c11 0 20.3-8.2 22-19l-.5-7z"/>
  <path fill="#34A853" d="M6.3 14.7L12.7 20C14.4 14.6 18.9 11 24 11c3.2 0 6.2 1.2 8.4 3.3L38.6 8C34.7 4.5 29.5 2 24 2 15.5 2 8.2 7.4 6.3 14.7z"/>
  <path fill="#FBBC05" d="M24 46c5.4 0 10.4-2.1 14.2-5.5l-6.6-6.6c-2.2 1.6-4.9 2.6-7.6 2.6-5.6 0-10.4-3.7-12-8.7L6.2 35.2C8.1 42.4 15.3 46 24 46z"/>
  <path fill="#EA4335" d="M44.5 20H24v8.5h11.7C35.2 32.2 29.7 37 24 37c-3.1 0-6-1.2-8.2-3.3L6.4 40C9.8 44.5 16.4 48 24 48c11 0 20.3-8.2 22-19l-.5-7z"/>
</svg>
