<svg aria-hidden="true" focusable="false" data-prefix="fab" data-icon="instagram" class="svg-inline--fa fa-instagram fa-w-16" role="img" xmlns="http://www.w3.org/2000/svg" viewBox="0 0 448 512">
  <path fill="white" d="M224.1 141c-63.6 0-114.9 51.3-114.9 114.9s51.3 114.9 114.9 114.9 114.9-51.3 114.9-114.9-51.3-114.9-114.9-114.9zm0 190.5c-41.8 0-75.6-33.8-75.6-75.6s33.8-75.6 75.6-75.6 75.6 33.8 75.6 75.6-33.8 75.6-75.6 75.6zm146.4-194.3c0 14.9-12 26.9-26.9 26.9s-26.9-12-26.9-26.9 12-26.9 26.9-26.9 26.9 12 26.9 26.9zm76.1 27.2c-1.7-35.3-9.9-66.7-36.4-92.2s-56.9-34.7-92.2-36.4c-36.4-2.1-144.8-2.1-181.2 0-35.3 1.7-66.7 9.9-92.2 36.4S8.9 128.6 7.2 164c-2.1 36.4-2.1 144.8 0 181.2 1.7 35.3 9.9 66.7 36.4 92.2s56.9 34.7 92.2 36.4c36.4 2.1 144.8 2.1 181.2 0 35.3-1.7 66.7-9.9 92.2-36.4s34.7-56.9 36.4-92.2c2.1-36.4 2.1-144.8 0-181.2zm-48.5 218.7c-7.8 19.7-22.9 35.2-42.6 42.6-29.5 11.7-99.5 9-132.4 9s-102.9 2.6-132.4-9c-19.7-7.8-35.2-22.9-42.6-42.6-11.7-29.5-9-99.5-9-132.4s-2.6-102.9 9-132.4c7.8-19.7 22.9-35.2 42.6-42.6 29.5-11.7 99.5-9 132.4-9s102.9-2.6 132.4 9c19.7 7.8 35.2 22.9 42.6 42.6 11.7 29.5 9 99.5 9 132.4s2.7 102.9-9 132.4z"></path>
</svg>
