<svg aria-hidden="true" focusable="false" data-prefix="fab" data-icon="linkedin" class="svg-inline--fa fa-linkedin fa-w-14" role="img" xmlns="http://www.w3.org/2000/svg" viewBox="0 0 448 512">
  <path fill="white" d="M100.28 448H7.4V148.9h92.78zm-46.14-340.6c-31.79 0-57.36-25.58-57.36-57.36S22.35 0 54.14 0 111.5 25.58 111.5 57.36 85.92 107.4 54.14 107.4zm308.89 192.2c-19.6 0-35.6 3.2-48 9.6s-21.7 15.7-25.4 27.7c-.5 1.2-.9 3-.9 5.3v172.8h-92.78V303.4h89.2v22.4c8.1-12.5 18-23 29.8-31.5s26-13.6 41.5-13.6c30.3 0 53 9.5 68.1 28.5 15.1 19 22.7 46.6 22.7 82.8V448h-92.8V370.4c0-16.5-4.8-29.1-14.5-37.8s-22.4-12.9-38.3-12.9z"></path>
</svg>
