<svg xmlns="http://www.w3.org/2000/svg" viewBox="0 0 512 512">
  <path fill="currentColor" d="M480 32c16.4 0 29.5 13.1 32 29.3s-6.4 31-21.6 35.7L288.7 162.5 221 277.8c-4.4 7.8-12.8 12.5-21.9 12.5s-17.5-4.7-21.9-12.5L131.3 192H52c-10.5 0-20-6.6-23.4-16.5s-.8-20.8 7-27.6l48-40c8.5-7.1 21-7.1 29.5 0l64 53.3L384 32H480zm-30.5 143.2L256.3 227.6l-64 110.9L116 273.9 50.1 332.7c-8.5 7.1-21 7.1-29.5 0l-48-40c-7.8-6.5-9.2-17.8-3.1-25.9s17.8-9.2 25.9-3.1L116 288.1l112 61.4 193.8-105.8 65.4 46.1z"/>
</svg>
