<svg xmlns="http://www.w3.org/2000/svg" viewBox="0 0 24 24" width="24" height="24">
  <path d="M12 6C10.9 6 10 6.9 10 8V12H8.5C8.22 12 8 12.22 8 12.5C8 12.78 8.22 13 8.5 13H12.5C12.78 13 13 12.78 13 12.5V8C13 7.45 12.55 7 12 7Z" fill="currentColor"/>
  <path d="M12 2C6.48 2 2 6.48 2 12C2 17.52 6.48 22 12 22C17.52 22 22 17.52 22 12C22 6.48 17.52 2 12 2ZM12 20C7.58 20 4 16.42 4 12C4 7.58 7.58 4 12 4C16.42 4 20 7.58 20 12C20 16.42 16.42 20 12 20ZM13 12.5V8H11V12.5L8.5 14H11V16.5L13 15V12.5Z" fill="currentColor"/>
</svg>
