<svg aria-hidden="true" focusable="false" data-prefix="fab" data-icon="twitter" class="svg-inline--fa fa-twitter fa-w-16" role="img" xmlns="http://www.w3.org/2000/svg" viewBox="0 0 512 512">
  <path fill="white" d="M459.4 151.7c.3 2.8.3 5.7.3 8.5 0 87-66.2 187-187 187-37.2 0-71.9-11-100.8-29.9 5.2.6 10.4.8 15.6.8 30.9 0 59.4-10.5 82.1-28.1-29-1-53.5-19.6-61.9-45.8 4 .8 8 .8 12 .8 5.9 0 11.8-.8 17.3-2.2-30.2-6.1-52.7-32.8-52.7-64.7v-.8c8.9 5 19.4 8.1 30.6 8.5-18.2-12.2-30.2-33-30.2-56.3 0-12.4 3.2-24 8.9-34 32.5 40 81.2 66.3 136.1 69.1-1.1-4.9-1.6-10-1.6-15.1 0-36.4 29.5-65.9 65.9-65.9 19 0 36.2 8 48.3 20.9 15-2.8 29.4-8.5 42.2-16.1-5 15.6-15.6 28.6-29.5 36.9 13.4-1.6 26.3-5.2 38.2-10.5-8.9 13.3-20 25-32.8 34.2z"></path>
</svg>
